<svg width="180" height="60" viewBox="0 0 180 60" fill="none" xmlns="http://www.w3.org/2000/svg">
<rect width="179.197" height="60" rx="10" fill="#08FFC1"/>
<path d="M38 12.5C47.665 12.5 55.5 20.335 55.5 30C55.5 39.665 47.665 47.5 38 47.5C28.335 47.5 20.5 39.665 20.5 30C20.5 20.335 28.335 12.5 38 12.5ZM33.7002 37.4502L46.6162 30L33.7002 22.5498V37.4502Z" fill="#23274B"/>
<path d="M78.4289 26.9C78.4289 28.18 78.1289 29.35 77.5289 30.41C76.9489 31.45 76.0589 32.29 74.8589 32.93C73.6789 33.55 72.2289 33.86 70.5089 33.86H67.5989V41H61.7189V19.85H70.5089C72.2089 19.85 73.6489 20.15 74.8289 20.75C76.0289 21.35 76.9289 22.18 77.5289 23.24C78.1289 24.3 78.4289 25.52 78.4289 26.9ZM69.9389 29.18C71.5989 29.18 72.4289 28.42 72.4289 26.9C72.4289 25.36 71.5989 24.59 69.9389 24.59H67.5989V29.18H69.9389ZM94.4712 37.55H86.9712L85.8312 41H79.6512L87.3612 19.85H94.1412L101.821 41H95.6112L94.4712 37.55ZM93.0012 33.05L90.7212 26.21L88.4712 33.05H93.0012ZM109.798 19.85V32.12C109.798 33.26 110.058 34.14 110.578 34.76C111.118 35.38 111.928 35.69 113.008 35.69C114.088 35.69 114.898 35.38 115.438 34.76C115.998 34.12 116.278 33.24 116.278 32.12V19.85H122.158V32.12C122.158 34.06 121.748 35.72 120.928 37.1C120.108 38.46 118.988 39.49 117.568 40.19C116.168 40.87 114.608 41.21 112.888 41.21C111.168 41.21 109.628 40.87 108.268 40.19C106.928 39.49 105.868 38.46 105.088 37.1C104.328 35.74 103.948 34.08 103.948 32.12V19.85H109.798ZM133.675 41.21C131.215 41.21 129.195 40.63 127.615 39.47C126.035 38.29 125.185 36.61 125.065 34.43H131.335C131.395 35.17 131.615 35.71 131.995 36.05C132.375 36.39 132.865 36.56 133.465 36.56C134.005 36.56 134.445 36.43 134.785 36.17C135.145 35.89 135.325 35.51 135.325 35.03C135.325 34.41 135.035 33.93 134.455 33.59C133.875 33.25 132.935 32.87 131.635 32.45C130.255 31.99 129.135 31.55 128.275 31.13C127.435 30.69 126.695 30.06 126.055 29.24C125.435 28.4 125.125 27.31 125.125 25.97C125.125 24.61 125.465 23.45 126.145 22.49C126.825 21.51 127.765 20.77 128.965 20.27C130.165 19.77 131.525 19.52 133.045 19.52C135.505 19.52 137.465 20.1 138.925 21.26C140.405 22.4 141.195 24.01 141.295 26.09H134.905C134.885 25.45 134.685 24.97 134.305 24.65C133.945 24.33 133.475 24.17 132.895 24.17C132.455 24.17 132.095 24.3 131.815 24.56C131.535 24.82 131.395 25.19 131.395 25.67C131.395 26.07 131.545 26.42 131.845 26.72C132.165 27 132.555 27.25 133.015 27.47C133.475 27.67 134.155 27.93 135.055 28.25C136.395 28.71 137.495 29.17 138.355 29.63C139.235 30.07 139.985 30.7 140.605 31.52C141.245 32.32 141.565 33.34 141.565 34.58C141.565 35.84 141.245 36.97 140.605 37.97C139.985 38.97 139.075 39.76 137.875 40.34C136.695 40.92 135.295 41.21 133.675 41.21ZM150.479 24.56V28.01H157.229V32.48H150.479V36.29H158.129V41H144.599V19.85H158.129V24.56H150.479Z" fill="#23274B"/>
</svg>
