<svg width="180" height="60" viewBox="0 0 180 60" fill="none" xmlns="http://www.w3.org/2000/svg">
<rect width="179.197" height="60" rx="10" fill="#08FFC1"/>
<path d="M89.1345 26.32C89.1345 27.6 88.8345 28.77 88.2344 29.83C87.6545 30.87 86.7645 31.71 85.5645 32.35C84.3845 32.97 82.9345 33.28 81.2144 33.28H78.3044V40.42H72.4244V19.27H81.2144C82.9144 19.27 84.3545 19.57 85.5345 20.17C86.7345 20.77 87.6345 21.6 88.2344 22.66C88.8345 23.72 89.1345 24.94 89.1345 26.32ZM80.6445 28.6C82.3045 28.6 83.1345 27.84 83.1345 26.32C83.1345 24.78 82.3045 24.01 80.6445 24.01H78.3044V28.6H80.6445ZM97.6767 35.92H104.247V40.42H91.7967V19.27H97.6767V35.92ZM120.213 36.97H112.713L111.573 40.42H105.393L113.103 19.27H119.883L127.563 40.42H121.353L120.213 36.97ZM118.743 32.47L116.463 25.63L114.213 32.47H118.743ZM149.01 19.27L141.57 33.7V40.42H135.66V33.7L128.22 19.27H134.94L138.66 27.43L142.38 19.27H149.01Z" fill="#23274B"/>
<path d="M43.0437 12.7279C52.5828 12.7281 60.3162 20.4612 60.3162 30.0004C60.316 39.5394 52.5827 47.2726 43.0437 47.2728C33.5045 47.2728 25.7714 39.5395 25.7712 30.0004C25.7712 20.4611 33.5044 12.7279 43.0437 12.7279ZM37.1218 36.5804H40.0828V23.4203H37.1218V36.5804ZM46.1521 36.5804H49.113V23.4203H46.1521V36.5804Z" fill="#23274B"/>
</svg>
