<svg width="229" height="65" viewBox="0 0 229 65" fill="none" xmlns="http://www.w3.org/2000/svg">
<rect width="228.625" height="65" rx="10" fill="#08FFC1"/>
<path d="M94.2216 43.4167L90.0216 35.6167H89.3916V43.4167H83.5116V22.2667H92.7816C94.4816 22.2667 95.9216 22.5667 97.1016 23.1667C98.2816 23.7467 99.1716 24.5567 99.7716 25.5967C100.372 26.6167 100.672 27.7667 100.672 29.0467C100.672 30.4867 100.272 31.7567 99.4716 32.8567C98.6916 33.9367 97.5416 34.7067 96.0216 35.1667L100.792 43.4167H94.2216ZM89.3916 31.5967H92.3016C93.1016 31.5967 93.7016 31.4067 94.1016 31.0267C94.5016 30.6467 94.7016 30.0967 94.7016 29.3767C94.7016 28.6967 94.4916 28.1667 94.0716 27.7867C93.6716 27.3867 93.0816 27.1867 92.3016 27.1867H89.3916V31.5967ZM109.526 26.9767V30.4267H116.276V34.8967H109.526V38.7067H117.176V43.4167H103.646V22.2667H117.176V26.9767H109.526ZM137.091 29.3167C137.091 30.5967 136.791 31.7667 136.191 32.8267C135.611 33.8667 134.721 34.7067 133.521 35.3467C132.341 35.9667 130.891 36.2767 129.171 36.2767H126.261V43.4167H120.381V22.2667H129.171C130.871 22.2667 132.311 22.5667 133.491 23.1667C134.691 23.7667 135.591 24.5967 136.191 25.6567C136.791 26.7167 137.091 27.9367 137.091 29.3167ZM128.601 31.5967C130.261 31.5967 131.091 30.8367 131.091 29.3167C131.091 27.7767 130.261 27.0067 128.601 27.0067H126.261V31.5967H128.601ZM145.633 38.9167H152.203V43.4167H139.753V22.2667H145.633V38.9167ZM168.17 39.9667H160.67L159.53 43.4167H153.35L161.06 22.2667H167.84L175.52 43.4167H169.31L168.17 39.9667ZM166.7 35.4667L164.42 28.6267L162.17 35.4667H166.7ZM196.966 22.2667L189.526 36.6967V43.4167H183.616V36.6967L176.176 22.2667H182.896L186.616 30.4267L190.336 22.2667H196.966Z" fill="#23274B"/>
<path d="M46.2968 52.0017C57.3441 52.0017 66.2997 43.513 66.2997 33.0417C66.2997 22.5703 57.3441 14.0816 46.2968 14.0816C35.2495 14.0816 26.2939 22.5703 26.2939 33.0417C26.2939 43.513 35.2495 52.0017 46.2968 52.0017Z" fill="#23274B"/>
<path d="M35.0894 33.6355C35.0894 27.2027 40.3026 21.9775 46.7473 21.9775C53.1921 21.9775 58.4053 27.1907 58.4053 33.6355C58.4053 40.0803 53.1802 45.2935 46.7473 45.2935C42.8135 45.2935 39.3341 43.3445 37.2296 40.3672" stroke="#08FFC1" stroke-width="2.5" stroke-miterlimit="10"/>
<path d="M36.0815 39.1955L39.9317 39.9488L36.3446 43.1173L36.0815 39.1955Z" fill="#08FFC1"/>
<path d="M34.3018 36.9749L41.2223 39.5638L36.0083 44.164L34.3018 36.9749Z" fill="#08FFC1"/>
</svg>
