<svg width="180" height="60" viewBox="0 0 180 60" fill="none" xmlns="http://www.w3.org/2000/svg">
<rect width="179.197" height="60" rx="10" fill="#08FFC1"/>
<path d="M71.9694 41.21C69.5094 41.21 67.4894 40.63 65.9094 39.47C64.3294 38.29 63.4794 36.61 63.3594 34.43H69.6294C69.6894 35.17 69.9094 35.71 70.2894 36.05C70.6694 36.39 71.1594 36.56 71.7594 36.56C72.2994 36.56 72.7394 36.43 73.0794 36.17C73.4394 35.89 73.6194 35.51 73.6194 35.03C73.6194 34.41 73.3294 33.93 72.7494 33.59C72.1694 33.25 71.2294 32.87 69.9294 32.45C68.5494 31.99 67.4294 31.55 66.5694 31.13C65.7294 30.69 64.9894 30.06 64.3494 29.24C63.7294 28.4 63.4194 27.31 63.4194 25.97C63.4194 24.61 63.7594 23.45 64.4394 22.49C65.1194 21.51 66.0594 20.77 67.2594 20.27C68.4594 19.77 69.8194 19.52 71.3394 19.52C73.7994 19.52 75.7594 20.1 77.2194 21.26C78.6994 22.4 79.4894 24.01 79.5894 26.09H73.1994C73.1794 25.45 72.9794 24.97 72.5994 24.65C72.2394 24.33 71.7694 24.17 71.1894 24.17C70.7494 24.17 70.3894 24.3 70.1094 24.56C69.8294 24.82 69.6894 25.19 69.6894 25.67C69.6894 26.07 69.8394 26.42 70.1394 26.72C70.4594 27 70.8494 27.25 71.3094 27.47C71.7694 27.67 72.4494 27.93 73.3494 28.25C74.6894 28.71 75.7894 29.17 76.6494 29.63C77.5294 30.07 78.2794 30.7 78.8994 31.52C79.5394 32.32 79.8594 33.34 79.8594 34.58C79.8594 35.84 79.5394 36.97 78.8994 37.97C78.2794 38.97 77.3694 39.76 76.1694 40.34C74.9894 40.92 73.5894 41.21 71.9694 41.21ZM88.7729 24.56V28.01H95.5229V32.48H88.7729V36.29H96.4229V41H82.8929V19.85H96.4229V24.56H88.7729ZM115.558 19.85V24.53H109.918V41H104.038V24.53H98.4585V19.85H115.558ZM123.794 19.85V32.12C123.794 33.26 124.054 34.14 124.574 34.76C125.114 35.38 125.924 35.69 127.004 35.69C128.084 35.69 128.894 35.38 129.434 34.76C129.994 34.12 130.274 33.24 130.274 32.12V19.85H136.154V32.12C136.154 34.06 135.744 35.72 134.924 37.1C134.104 38.46 132.984 39.49 131.564 40.19C130.164 40.87 128.604 41.21 126.884 41.21C125.164 41.21 123.624 40.87 122.264 40.19C120.924 39.49 119.864 38.46 119.084 37.1C118.324 35.74 117.944 34.08 117.944 32.12V19.85H123.794ZM156.401 26.9C156.401 28.18 156.101 29.35 155.501 30.41C154.921 31.45 154.031 32.29 152.831 32.93C151.651 33.55 150.201 33.86 148.481 33.86H145.571V41H139.691V19.85H148.481C150.181 19.85 151.621 20.15 152.801 20.75C154.001 21.35 154.901 22.18 155.501 23.24C156.101 24.3 156.401 25.52 156.401 26.9ZM147.911 29.18C149.571 29.18 150.401 28.42 150.401 26.9C150.401 25.36 149.571 24.59 147.911 24.59H145.571V29.18H147.911Z" fill="#23274B"/>
<path d="M35.5 19.7529C37.1789 21.7698 39.7783 22.8462 42.3916 22.6074C42.1525 25.2208 43.2294 27.8209 45.2461 29.5C43.2296 31.1789 42.1529 33.7785 42.3916 36.3916C39.7785 36.1529 37.1789 37.2296 35.5 39.2461C33.8209 37.2294 31.2208 36.1525 28.6074 36.3916C28.8462 33.7783 27.7698 31.1789 25.7529 29.5C27.7701 27.8209 28.8465 25.2211 28.6074 22.6074C31.2211 22.8465 33.8209 21.7701 35.5 19.7529Z" stroke="#23274B" stroke-width="10"/>
<circle cx="35.5" cy="29.5" r="5.5" fill="#08FFC1"/>
</svg>
