<svg width="258" height="65" viewBox="0 0 258 65" fill="none" xmlns="http://www.w3.org/2000/svg">
<rect width="258" height="65" rx="10" fill="#08FFC1"/>
<path d="M96.4279 43.21C93.9679 43.21 91.9479 42.63 90.3679 41.47C88.7879 40.29 87.9379 38.61 87.8179 36.43H94.0879C94.1479 37.17 94.3679 37.71 94.7479 38.05C95.1279 38.39 95.6179 38.56 96.2179 38.56C96.7579 38.56 97.1979 38.43 97.5379 38.17C97.8979 37.89 98.0779 37.51 98.0779 37.03C98.0779 36.41 97.7879 35.93 97.2079 35.59C96.6279 35.25 95.6879 34.87 94.3879 34.45C93.0079 33.99 91.8879 33.55 91.0279 33.13C90.1879 32.69 89.4479 32.06 88.8079 31.24C88.1879 30.4 87.8779 29.31 87.8779 27.97C87.8779 26.61 88.2179 25.45 88.8979 24.49C89.5779 23.51 90.5179 22.77 91.7179 22.27C92.9179 21.77 94.2779 21.52 95.7979 21.52C98.2579 21.52 100.218 22.1 101.678 23.26C103.158 24.4 103.948 26.01 104.048 28.09H97.6579C97.6379 27.45 97.4379 26.97 97.0579 26.65C96.6979 26.33 96.2279 26.17 95.6479 26.17C95.2079 26.17 94.8479 26.3 94.5679 26.56C94.2879 26.82 94.1479 27.19 94.1479 27.67C94.1479 28.07 94.2979 28.42 94.5979 28.72C94.9179 29 95.3079 29.25 95.7679 29.47C96.2279 29.67 96.9079 29.93 97.8079 30.25C99.1479 30.71 100.248 31.17 101.108 31.63C101.988 32.07 102.738 32.7 103.358 33.52C103.998 34.32 104.318 35.34 104.318 36.58C104.318 37.84 103.998 38.97 103.358 39.97C102.738 40.97 101.828 41.76 100.628 42.34C99.4479 42.92 98.0479 43.21 96.4279 43.21ZM137.141 21.85L131.951 43H124.721L121.811 30.04L118.841 43H111.611L106.481 21.85H112.841L115.301 36.31L118.631 21.85H125.081L128.321 36.19L130.781 21.85H137.141ZM145.817 21.85V43H139.937V21.85H145.817ZM165.395 21.85V26.53H159.755V43H153.875V26.53H148.295V21.85H165.395ZM167.151 32.38C167.151 30.3 167.581 28.45 168.441 26.83C169.321 25.19 170.561 23.92 172.161 23.02C173.761 22.1 175.601 21.64 177.681 21.64C180.321 21.64 182.541 22.35 184.341 23.77C186.141 25.17 187.301 27.08 187.821 29.5H181.491C181.111 28.7 180.581 28.09 179.901 27.67C179.241 27.25 178.471 27.04 177.591 27.04C176.231 27.04 175.141 27.53 174.321 28.51C173.521 29.47 173.121 30.76 173.121 32.38C173.121 34.02 173.521 35.33 174.321 36.31C175.141 37.27 176.231 37.75 177.591 37.75C178.471 37.75 179.241 37.54 179.901 37.12C180.581 36.7 181.111 36.09 181.491 35.29H187.821C187.301 37.71 186.141 39.63 184.341 41.05C182.541 42.45 180.321 43.15 177.681 43.15C175.601 43.15 173.761 42.7 172.161 41.8C170.561 40.88 169.321 39.61 168.441 37.99C167.581 36.35 167.151 34.48 167.151 32.38ZM209.835 21.85V43H203.955V34.51H196.785V43H190.905V21.85H196.785V29.8H203.955V21.85H209.835Z" fill="#23274B"/>
<path d="M51.9317 51.9342C62.9396 51.9342 71.8633 43.4757 71.8633 33.0417C71.8633 22.6076 62.9396 14.1491 51.9317 14.1491C40.9237 14.1491 32 22.6076 32 33.0417C32 43.4757 40.9237 51.9342 51.9317 51.9342Z" fill="#23274B"/>
<g clip-path="url(#clip0_63_1084)">
<path d="M42.9639 38V26H49.9639L51.9639 28H60.9639V38C60.9639 39.1046 60.0684 40 58.9639 40H44.9639C43.8593 40 42.9639 39.1046 42.9639 38Z" stroke="#08FFC1" stroke-width="2" stroke-linecap="round" stroke-linejoin="round"/>
<path d="M53.9639 34L50.9639 35.7321L50.9639 32.2679L53.9639 34Z" stroke="#08FFC1" stroke-width="2" stroke-linejoin="round"/>
</g>
<defs>
<clipPath id="clip0_63_1084">
<rect width="34.5464" height="34.5464" fill="white" transform="translate(34.9526 14.1491)"/>
</clipPath>
</defs>
</svg>
