<svg width="264" height="60" viewBox="0 0 264 60" fill="none" xmlns="http://www.w3.org/2000/svg">
<rect width="264" height="60" rx="10" fill="#08FFC1"/>
<path d="M39 12.5C48.665 12.5 56.5 20.335 56.5 30C56.5 39.665 48.665 47.5 39 47.5C29.335 47.5 21.5 39.665 21.5 30C21.5 20.335 29.335 12.5 39 12.5ZM32.75 36.25H45.25V23.75H32.75V36.25Z" fill="#23274B"/>
<path d="M79.7966 19.85V24.53H74.1566V41H68.2766V24.53H62.6966V19.85H79.7966ZM88.152 24.56V28.01H94.902V32.48H88.152V36.29H95.802V41H82.272V19.85H95.802V24.56H88.152ZM112.388 37.55H104.888L103.748 41H97.5676L105.278 19.85H112.058L119.738 41H113.528L112.388 37.55ZM110.918 33.05L108.638 26.21L106.388 33.05H110.918ZM132.664 41L128.464 33.2H127.834V41H121.954V19.85H131.224C132.924 19.85 134.364 20.15 135.544 20.75C136.724 21.33 137.614 22.14 138.214 23.18C138.814 24.2 139.114 25.35 139.114 26.63C139.114 28.07 138.714 29.34 137.914 30.44C137.134 31.52 135.984 32.29 134.464 32.75L139.234 41H132.664ZM127.834 29.18H130.744C131.544 29.18 132.144 28.99 132.544 28.61C132.944 28.23 133.144 27.68 133.144 26.96C133.144 26.28 132.934 25.75 132.514 25.37C132.114 24.97 131.524 24.77 130.744 24.77H127.834V29.18ZM150.458 19.85C152.678 19.85 154.618 20.3 156.278 21.2C157.958 22.08 159.248 23.32 160.148 24.92C161.048 26.52 161.498 28.35 161.498 30.41C161.498 32.45 161.038 34.27 160.118 35.87C159.218 37.47 157.928 38.73 156.248 39.65C154.588 40.55 152.658 41 150.458 41H142.088V19.85H150.458ZM150.008 35.81C151.728 35.81 153.078 35.34 154.058 34.4C155.038 33.46 155.528 32.13 155.528 30.41C155.528 28.67 155.038 27.33 154.058 26.39C153.078 25.43 151.728 24.95 150.008 24.95H147.968V35.81H150.008ZM174.589 41.21C172.609 41.21 170.789 40.75 169.129 39.83C167.469 38.89 166.149 37.6 165.169 35.96C164.209 34.3 163.729 32.43 163.729 30.35C163.729 28.27 164.209 26.41 165.169 24.77C166.149 23.11 167.469 21.82 169.129 20.9C170.789 19.98 172.609 19.52 174.589 19.52C176.589 19.52 178.409 19.98 180.049 20.9C181.709 21.82 183.019 23.11 183.979 24.77C184.939 26.41 185.419 28.27 185.419 30.35C185.419 32.43 184.939 34.3 183.979 35.96C183.019 37.6 181.709 38.89 180.049 39.83C178.389 40.75 176.569 41.21 174.589 41.21ZM174.589 35.75C176.089 35.75 177.269 35.26 178.129 34.28C179.009 33.3 179.449 31.99 179.449 30.35C179.449 28.67 179.009 27.35 178.129 26.39C177.269 25.41 176.089 24.92 174.589 24.92C173.069 24.92 171.879 25.41 171.019 26.39C170.159 27.35 169.729 28.67 169.729 30.35C169.729 32.01 170.159 33.33 171.019 34.31C171.879 35.27 173.069 35.75 174.589 35.75ZM218.152 19.85L212.962 41H205.732L202.822 28.04L199.852 41H192.622L187.492 19.85H193.852L196.312 34.31L199.642 19.85H206.092L209.332 34.19L211.792 19.85H218.152ZM240.537 41H234.657L226.827 29.18V41H220.947V19.85H226.827L234.657 31.82V19.85H240.537V41Z" fill="#23274B"/>
</svg>
