<svg width="486" height="160" viewBox="0 0 486 160" fill="none" xmlns="http://www.w3.org/2000/svg">
<g filter="url(#filter0_d_54_866)">
<g filter="url(#filter1_d_54_866)">
<path d="M41.9297 23.0156C45.6328 23.0156 49.1953 23.6367 52.6172 24.8789C56.0625 26.1211 59.1328 28.1016 61.8281 30.8203C64.5469 33.5391 66.6914 37.1484 68.2617 41.6484C69.8555 46.125 70.6641 51.6211 70.6875 58.1367C70.6875 64.2539 69.9961 69.7148 68.6133 74.5195C67.2539 79.3008 65.2969 83.3672 62.7422 86.7188C60.1875 90.0703 57.1055 92.625 53.4961 94.3828C49.8867 96.1172 45.8555 96.9844 41.4023 96.9844C36.5977 96.9844 32.3555 96.0586 28.6758 94.207C24.9961 92.332 22.0313 89.7891 19.7812 86.5781C17.5547 83.3437 16.207 79.7109 15.7383 75.6797H30.75C31.3359 78.3047 32.5664 80.3438 34.4414 81.7969C36.3164 83.2266 38.6367 83.9414 41.4023 83.9414C46.0898 83.9414 49.6523 81.9023 52.0898 77.8242C54.5273 73.7227 55.7578 68.1094 55.7813 60.9844H55.2891C54.2109 63.0937 52.7578 64.9102 50.9297 66.4336C49.1016 67.9336 47.0039 69.0937 44.6367 69.9141C42.293 70.7344 39.7969 71.1445 37.1484 71.1445C32.9063 71.1445 29.1211 70.1484 25.793 68.1562C22.4648 66.1641 19.8398 63.4219 17.918 59.9297C15.9961 56.4375 15.0352 52.4531 15.0352 47.9766C15.0117 43.1484 16.125 38.8477 18.375 35.0742C20.625 31.3008 23.7656 28.3477 27.7969 26.2148C31.8516 24.0586 36.5625 22.9922 41.9297 23.0156ZM42.0352 34.9687C39.668 34.9687 37.5586 35.5312 35.707 36.6563C33.8789 37.7812 32.4258 39.293 31.3477 41.1914C30.293 43.0898 29.7773 45.2109 29.8008 47.5547C29.8008 49.9219 30.3164 52.0547 31.3477 53.9531C32.4023 55.8281 33.832 57.3281 35.6367 58.4531C37.4648 59.5547 39.5508 60.1055 41.8945 60.1055C43.6523 60.1055 45.2813 59.7773 46.7812 59.1211C48.2813 58.4648 49.582 57.5625 50.6836 56.4141C51.8086 55.2422 52.6875 53.8945 53.3203 52.3711C53.9531 50.8477 54.2695 49.2305 54.2695 47.5195C54.2461 45.2461 53.707 43.1602 52.6523 41.2617C51.5977 39.3633 50.1445 37.8398 48.293 36.6914C46.4414 35.543 44.3555 34.9687 42.0352 34.9687ZM90.8789 87.6328C88.5586 87.6328 86.5664 86.8125 84.9023 85.1719C83.2617 83.5313 82.4414 81.5391 82.4414 79.1953C82.4414 76.8984 83.2617 74.9297 84.9023 73.2891C86.5664 71.6484 88.5586 70.8281 90.8789 70.8281C93.1289 70.8281 95.0977 71.6484 96.7852 73.2891C98.4727 74.9297 99.3164 76.8984 99.3164 79.1953C99.3164 80.7422 98.918 82.1602 98.1211 83.4492C97.3477 84.7148 96.3281 85.7344 95.0625 86.5078C93.7969 87.2578 92.4023 87.6328 90.8789 87.6328ZM90.8789 52.3008C88.5586 52.3008 86.5664 51.4805 84.9023 49.8398C83.2617 48.1992 82.4414 46.207 82.4414 43.8633C82.4414 41.5664 83.2617 39.6094 84.9023 37.9922C86.5664 36.3516 88.5586 35.5312 90.8789 35.5312C93.1289 35.5312 95.0977 36.3516 96.7852 37.9922C98.4727 39.6094 99.3164 41.5664 99.3164 43.8633C99.3164 45.4336 98.918 46.8633 98.1211 48.1523C97.3477 49.418 96.3281 50.4258 95.0625 51.1758C93.7969 51.9258 92.4023 52.3008 90.8789 52.3008ZM138.519 96.9844C133.55 96.9844 129.12 96.0703 125.229 94.2422C121.362 92.4141 118.292 89.8945 116.019 86.6836C113.745 83.4727 112.562 79.793 112.468 75.6445H127.233C127.397 78.4336 128.569 80.6953 130.749 82.4297C132.929 84.1641 135.519 85.0312 138.519 85.0312C140.909 85.0312 143.019 84.5039 144.847 83.4492C146.698 82.3711 148.14 80.8828 149.171 78.9844C150.226 77.0625 150.753 74.8594 150.753 72.375C150.753 69.8437 150.214 67.6172 149.136 65.6953C148.081 63.7734 146.616 62.2734 144.741 61.1953C142.866 60.1172 140.722 59.5664 138.308 59.543C136.198 59.543 134.147 59.9766 132.155 60.8437C130.187 61.7109 128.651 62.8945 127.55 64.3945L114.015 61.9688L117.425 24H161.44V36.4453H129.976L128.112 54.4805H128.534C129.8 52.6992 131.71 51.2227 134.265 50.0508C136.819 48.8789 139.679 48.293 142.843 48.293C147.179 48.293 151.046 49.3125 154.444 51.3516C157.843 53.3906 160.526 56.1914 162.495 59.7539C164.464 63.293 165.437 67.3711 165.413 71.9883C165.437 76.8398 164.312 81.1523 162.038 84.9258C159.788 88.6758 156.636 91.6289 152.581 93.7852C148.55 95.918 143.862 96.9844 138.519 96.9844ZM203.394 96.9844C198.144 96.9844 193.468 96.082 189.366 94.2773C185.288 92.4492 182.065 89.9414 179.698 86.7539C177.354 83.543 176.147 79.8398 176.077 75.6445H191.405C191.499 77.4023 192.073 78.9492 193.128 80.2852C194.206 81.5977 195.636 82.6172 197.417 83.3438C199.198 84.0703 201.202 84.4336 203.429 84.4336C205.749 84.4336 207.8 84.0234 209.581 83.2031C211.362 82.3828 212.757 81.2461 213.765 79.793C214.772 78.3398 215.276 76.6641 215.276 74.7656C215.276 72.8437 214.737 71.1445 213.659 69.668C212.604 68.168 211.081 66.9961 209.089 66.1523C207.12 65.3086 204.776 64.8867 202.058 64.8867H195.343V53.707H202.058C204.354 53.707 206.382 53.3086 208.14 52.5117C209.921 51.7148 211.304 50.6133 212.288 49.207C213.272 47.7773 213.765 46.1133 213.765 44.2148C213.765 42.4102 213.331 40.8281 212.464 39.4687C211.62 38.0859 210.425 37.0078 208.878 36.2344C207.354 35.4609 205.573 35.0742 203.534 35.0742C201.472 35.0742 199.585 35.4492 197.874 36.1992C196.163 36.9258 194.792 37.9687 193.761 39.3281C192.729 40.6875 192.179 42.2812 192.108 44.1094H177.519C177.589 39.9609 178.772 36.3047 181.069 33.1406C183.366 29.9766 186.46 27.5039 190.351 25.7227C194.265 23.918 198.683 23.0156 203.604 23.0156C208.573 23.0156 212.921 23.918 216.647 25.7227C220.374 27.5273 223.269 29.9648 225.331 33.0352C227.417 36.082 228.448 39.5039 228.425 43.3008C228.448 47.332 227.194 50.6953 224.663 53.3906C222.155 56.0859 218.886 57.7969 214.854 58.5234V59.0859C220.151 59.7656 224.183 61.6055 226.948 64.6055C229.737 67.582 231.12 71.3086 231.097 75.7852C231.12 79.8867 229.937 83.5313 227.546 86.7188C225.179 89.9062 221.909 92.4141 217.737 94.2422C213.565 96.0703 208.784 96.9844 203.394 96.9844ZM279.284 96H262.972L287.827 24H307.444L332.265 96H315.952L297.917 40.4531H297.354L279.284 96ZM278.265 67.6992H316.796V79.582H278.265V67.6992ZM341.681 24H360.454L380.282 72.375H381.126L400.954 24H419.728V96H404.962V49.1367H404.364L385.731 95.6484H375.677L357.044 48.9609H356.446V96H341.681V24Z" fill="#3EFF5A"/>
</g>
<path d="M24.9838 145.176C21.179 145.176 18.0547 144.279 15.611 142.485C13.1672 140.66 11.8526 138.061 11.667 134.69H21.3646C21.4574 135.834 21.7976 136.669 22.3854 137.195C22.9731 137.721 23.731 137.984 24.659 137.984C25.4942 137.984 26.1747 137.783 26.7006 137.381C27.2574 136.948 27.5358 136.36 27.5358 135.618C27.5358 134.659 27.0872 133.916 26.1902 133.39C25.2931 132.865 23.8392 132.277 21.8286 131.627C19.6942 130.916 17.9619 130.235 16.6318 129.586C15.3326 128.905 14.188 127.931 13.1982 126.662C12.2392 125.363 11.7598 123.677 11.7598 121.605C11.7598 119.501 12.2856 117.707 13.3374 116.222C14.3891 114.707 15.843 113.562 17.699 112.789C19.555 112.016 21.6584 111.629 24.0094 111.629C27.8142 111.629 30.8456 112.526 33.1038 114.32C35.3928 116.083 36.6147 118.573 36.7694 121.79H26.8862C26.8552 120.801 26.5459 120.058 25.9582 119.563C25.4014 119.068 24.6744 118.821 23.7774 118.821C23.0968 118.821 22.54 119.022 22.107 119.424C21.6739 119.826 21.4574 120.398 21.4574 121.141C21.4574 121.76 21.6894 122.301 22.1534 122.765C22.6483 123.198 23.2515 123.585 23.963 123.925C24.6744 124.234 25.7262 124.636 27.1182 125.131C29.1907 125.843 30.892 126.554 32.2222 127.266C33.5832 127.946 34.7432 128.921 35.7022 130.189C36.692 131.426 37.187 133.004 37.187 134.922C37.187 136.87 36.692 138.618 35.7022 140.165C34.7432 141.712 33.3358 142.933 31.4798 143.83C29.6547 144.728 27.4894 145.176 24.9838 145.176ZM57.598 145.176C54.5356 145.176 51.7207 144.465 49.1532 143.042C46.5857 141.588 44.5441 139.593 43.0284 137.056C41.5436 134.489 40.8012 131.596 40.8012 128.379C40.8012 125.162 41.5436 122.285 43.0284 119.749C44.5441 117.181 46.5857 115.186 49.1532 113.763C51.7207 112.34 54.5356 111.629 57.598 111.629C60.6913 111.629 63.5063 112.34 66.0428 113.763C68.6103 115.186 70.6364 117.181 72.1212 119.749C73.606 122.285 74.3484 125.162 74.3484 128.379C74.3484 131.596 73.606 134.489 72.1212 137.056C70.6364 139.593 68.6103 141.588 66.0428 143.042C63.4753 144.465 60.6604 145.176 57.598 145.176ZM57.598 136.731C59.918 136.731 61.7431 135.973 63.0732 134.458C64.4343 132.942 65.1148 130.916 65.1148 128.379C65.1148 125.781 64.4343 123.739 63.0732 122.254C61.7431 120.739 59.918 119.981 57.598 119.981C55.2471 119.981 53.4065 120.739 52.0764 122.254C50.7463 123.739 50.0812 125.781 50.0812 128.379C50.0812 130.947 50.7463 132.988 52.0764 134.504C53.4065 135.989 55.2471 136.731 57.598 136.731ZM77.8231 128.426C77.8231 125.209 78.4882 122.347 79.8183 119.842C81.1794 117.305 83.0972 115.341 85.5719 113.949C88.0466 112.526 90.8924 111.814 94.1095 111.814C98.1927 111.814 101.626 112.913 104.41 115.109C107.194 117.274 108.988 120.228 109.793 123.971H100.002C99.4146 122.734 98.5948 121.79 97.5431 121.141C96.5223 120.491 95.3314 120.166 93.9703 120.166C91.8668 120.166 90.181 120.924 88.9127 122.44C87.6754 123.925 87.0567 125.92 87.0567 128.426C87.0567 130.962 87.6754 132.988 88.9127 134.504C90.181 135.989 91.8668 136.731 93.9703 136.731C95.3314 136.731 96.5223 136.406 97.5431 135.757C98.5948 135.107 99.4146 134.164 100.002 132.926H109.793C108.988 136.669 107.194 139.639 104.41 141.835C101.626 144.001 98.1927 145.083 94.1095 145.083C90.8924 145.083 88.0466 144.387 85.5719 142.995C83.0972 141.572 81.1794 139.608 79.8183 137.102C78.4882 134.566 77.8231 131.674 77.8231 128.426ZM133.948 144.851L123.694 130.514V144.851H114.599V112.139H123.694V126.245L133.855 112.139H144.342L132.324 128.008L144.945 144.851H133.948ZM157.861 119.424V124.76H168.301V131.674H157.861V137.566H169.693V144.851H148.766V112.139H169.693V119.424H157.861ZM199.325 112.139V119.378H190.602V144.851H181.507V119.378H172.877V112.139H199.325ZM238.416 123.043C238.416 125.023 237.952 126.833 237.024 128.472C236.127 130.081 234.75 131.38 232.894 132.37C231.069 133.329 228.827 133.808 226.166 133.808H221.665V144.851H212.571V112.139H226.166C228.796 112.139 231.023 112.603 232.848 113.531C234.704 114.459 236.096 115.743 237.024 117.382C237.952 119.022 238.416 120.909 238.416 123.043ZM225.285 126.57C227.852 126.57 229.136 125.394 229.136 123.043C229.136 120.661 227.852 119.47 225.285 119.47H221.665V126.57H225.285ZM259.134 144.851L252.638 132.787H251.664V144.851H242.57V112.139H256.907C259.536 112.139 261.764 112.603 263.589 113.531C265.414 114.428 266.79 115.681 267.718 117.29C268.646 118.867 269.11 120.646 269.11 122.626C269.11 124.853 268.492 126.817 267.254 128.518C266.048 130.189 264.269 131.38 261.918 132.091L269.296 144.851H259.134ZM251.664 126.57H256.165C257.402 126.57 258.33 126.276 258.949 125.688C259.567 125.1 259.877 124.25 259.877 123.136C259.877 122.084 259.552 121.265 258.902 120.677C258.284 120.058 257.371 119.749 256.165 119.749H251.664V126.57ZM289.429 145.176C286.367 145.176 283.552 144.465 280.984 143.042C278.417 141.588 276.375 139.593 274.86 137.056C273.375 134.489 272.632 131.596 272.632 128.379C272.632 125.162 273.375 122.285 274.86 119.749C276.375 117.181 278.417 115.186 280.984 113.763C283.552 112.34 286.367 111.629 289.429 111.629C292.523 111.629 295.338 112.34 297.874 113.763C300.442 115.186 302.468 117.181 303.952 119.749C305.437 122.285 306.18 125.162 306.18 128.379C306.18 131.596 305.437 134.489 303.952 137.056C302.468 139.593 300.442 141.588 297.874 143.042C295.307 144.465 292.492 145.176 289.429 145.176ZM289.429 136.731C291.749 136.731 293.574 135.973 294.904 134.458C296.266 132.942 296.946 130.916 296.946 128.379C296.946 125.781 296.266 123.739 294.904 122.254C293.574 120.739 291.749 119.981 289.429 119.981C287.078 119.981 285.238 120.739 283.908 122.254C282.578 123.739 281.912 125.781 281.912 128.379C281.912 130.947 282.578 132.988 283.908 134.504C285.238 135.989 287.078 136.731 289.429 136.731ZM332.437 112.139V133.808C332.437 137.489 331.431 140.304 329.421 142.253C327.441 144.202 324.703 145.176 321.208 145.176C317.496 145.176 314.526 144.14 312.299 142.067C310.103 139.995 309.005 137.01 309.005 133.112H318.006C318.037 135.68 318.981 136.963 320.837 136.963C322.507 136.963 323.342 135.912 323.342 133.808V112.139H332.437ZM347.459 119.424V124.76H357.899V131.674H347.459V137.566H359.291V144.851H338.365V112.139H359.291V119.424H347.459ZM363.172 128.426C363.172 125.209 363.837 122.347 365.167 119.842C366.528 117.305 368.446 115.341 370.92 113.949C373.395 112.526 376.241 111.814 379.458 111.814C383.541 111.814 386.975 112.913 389.759 115.109C392.543 117.274 394.337 120.228 395.141 123.971H385.351C384.763 122.734 383.943 121.79 382.892 121.141C381.871 120.491 380.68 120.166 379.319 120.166C377.215 120.166 375.529 120.924 374.261 122.44C373.024 123.925 372.405 125.92 372.405 128.426C372.405 130.962 373.024 132.988 374.261 134.504C375.529 135.989 377.215 136.731 379.319 136.731C380.68 136.731 381.871 136.406 382.892 135.757C383.943 135.107 384.763 134.164 385.351 132.926H395.141C394.337 136.669 392.543 139.639 389.759 141.835C386.975 144.001 383.541 145.083 379.458 145.083C376.241 145.083 373.395 144.387 370.92 142.995C368.446 141.572 366.528 139.608 365.167 137.102C363.837 134.566 363.172 131.674 363.172 128.426ZM424.586 112.139V119.378H415.863V144.851H406.768V119.378H398.138V112.139H424.586Z" fill="white"/>
</g>
<defs>
<filter id="filter0_d_54_866" x="7.66699" y="22.9805" width="420.919" height="130.196" filterUnits="userSpaceOnUse" color-interpolation-filters="sRGB">
<feFlood flood-opacity="0" result="BackgroundImageFix"/>
<feColorMatrix in="SourceAlpha" type="matrix" values="0 0 0 0 0 0 0 0 0 0 0 0 0 0 0 0 0 0 127 0" result="hardAlpha"/>
<feOffset dy="4"/>
<feGaussianBlur stdDeviation="2"/>
<feComposite in2="hardAlpha" operator="out"/>
<feColorMatrix type="matrix" values="0 0 0 0 0 0 0 0 0 0 0 0 0 0 0 0 0 0 0.25 0"/>
<feBlend mode="normal" in2="BackgroundImageFix" result="effect1_dropShadow_54_866"/>
<feBlend mode="normal" in="SourceGraphic" in2="effect1_dropShadow_54_866" result="shape"/>
</filter>
<filter id="filter1_d_54_866" x="0" y="7.98047" width="434.728" height="104.004" filterUnits="userSpaceOnUse" color-interpolation-filters="sRGB">
<feFlood flood-opacity="0" result="BackgroundImageFix"/>
<feColorMatrix in="SourceAlpha" type="matrix" values="0 0 0 0 0 0 0 0 0 0 0 0 0 0 0 0 0 0 127 0" result="hardAlpha"/>
<feOffset/>
<feGaussianBlur stdDeviation="7.5"/>
<feColorMatrix type="matrix" values="0 0 0 0 0.419608 0 0 0 0 0.886275 0 0 0 0 0.745098 0 0 0 0.8 0"/>
<feBlend mode="normal" in2="BackgroundImageFix" result="effect1_dropShadow_54_866"/>
<feBlend mode="normal" in="SourceGraphic" in2="effect1_dropShadow_54_866" result="shape"/>
</filter>
</defs>
</svg>
