<svg width="259" height="29" viewBox="0 0 259 29" fill="none" xmlns="http://www.w3.org/2000/svg">
<circle cx="14.5" cy="14.5" r="14.5" fill="#3EFF5A"/>
<path d="M36.96 15.38C36.96 13.3 37.39 11.45 38.25 9.83C39.13 8.19 40.37 6.92 41.97 6.02C43.57 5.1 45.41 4.64 47.49 4.64C50.13 4.64 52.35 5.35 54.15 6.77C55.95 8.17 57.11 10.08 57.63 12.5H51.3C50.92 11.7 50.39 11.09 49.71 10.67C49.05 10.25 48.28 10.04 47.4 10.04C46.04 10.04 44.95 10.53 44.13 11.51C43.33 12.47 42.93 13.76 42.93 15.38C42.93 17.02 43.33 18.33 44.13 19.31C44.95 20.27 46.04 20.75 47.4 20.75C48.28 20.75 49.05 20.54 49.71 20.12C50.39 19.7 50.92 19.09 51.3 18.29H57.63C57.11 20.71 55.95 22.63 54.15 24.05C52.35 25.45 50.13 26.15 47.49 26.15C45.41 26.15 43.57 25.7 41.97 24.8C40.37 23.88 39.13 22.61 38.25 20.99C37.39 19.35 36.96 17.48 36.96 15.38ZM70.8544 26.21C68.8744 26.21 67.0544 25.75 65.3944 24.83C63.7344 23.89 62.4144 22.6 61.4344 20.96C60.4744 19.3 59.9944 17.43 59.9944 15.35C59.9944 13.27 60.4744 11.41 61.4344 9.77C62.4144 8.11 63.7344 6.82 65.3944 5.9C67.0544 4.98 68.8744 4.52 70.8544 4.52C72.8544 4.52 74.6744 4.98 76.3144 5.9C77.9744 6.82 79.2844 8.11 80.2444 9.77C81.2044 11.41 81.6844 13.27 81.6844 15.35C81.6844 17.43 81.2044 19.3 80.2444 20.96C79.2844 22.6 77.9744 23.89 76.3144 24.83C74.6544 25.75 72.8344 26.21 70.8544 26.21ZM70.8544 20.75C72.3544 20.75 73.5344 20.26 74.3944 19.28C75.2744 18.3 75.7144 16.99 75.7144 15.35C75.7144 13.67 75.2744 12.35 74.3944 11.39C73.5344 10.41 72.3544 9.92 70.8544 9.92C69.3344 9.92 68.1444 10.41 67.2844 11.39C66.4244 12.35 65.9944 13.67 65.9944 15.35C65.9944 17.01 66.4244 18.33 67.2844 19.31C68.1444 20.27 69.3344 20.75 70.8544 20.75ZM104.218 26H98.3377L90.5077 14.18V26H84.6277V4.85H90.5077L98.3377 16.82V4.85H104.218V26ZM127.457 26H121.577L113.747 14.18V26H107.867V4.85H113.747L121.577 16.82V4.85H127.457V26ZM136.987 9.56V13.01H143.737V17.48H136.987V21.29H144.637V26H131.107V4.85H144.637V9.56H136.987ZM147.122 15.38C147.122 13.3 147.552 11.45 148.412 9.83C149.292 8.19 150.532 6.92 152.132 6.02C153.732 5.1 155.572 4.64 157.652 4.64C160.292 4.64 162.512 5.35 164.312 6.77C166.112 8.17 167.272 10.08 167.792 12.5H161.462C161.082 11.7 160.552 11.09 159.872 10.67C159.212 10.25 158.442 10.04 157.562 10.04C156.202 10.04 155.112 10.53 154.292 11.51C153.492 12.47 153.092 13.76 153.092 15.38C153.092 17.02 153.492 18.33 154.292 19.31C155.112 20.27 156.202 20.75 157.562 20.75C158.442 20.75 159.212 20.54 159.872 20.12C160.552 19.7 161.082 19.09 161.462 18.29H167.792C167.272 20.71 166.112 22.63 164.312 24.05C162.512 25.45 160.292 26.15 157.652 26.15C155.572 26.15 153.732 25.7 152.132 24.8C150.532 23.88 149.292 22.61 148.412 20.99C147.552 19.35 147.122 17.48 147.122 15.38ZM186.806 4.85V9.53H181.166V26H175.286V9.53H169.706V4.85H186.806ZM195.162 4.85V26H189.282V4.85H195.162ZM218.4 26H212.52L204.69 14.18V26H198.81V4.85H204.69L212.52 16.82V4.85H218.4V26ZM235.55 11.81C235.21 11.25 234.74 10.82 234.14 10.52C233.56 10.22 232.87 10.07 232.07 10.07C230.59 10.07 229.42 10.55 228.56 11.51C227.72 12.47 227.3 13.76 227.3 15.38C227.3 17.2 227.75 18.59 228.65 19.55C229.57 20.49 230.9 20.96 232.64 20.96C234.7 20.96 236.17 20.03 237.05 18.17H231.14V13.94H242.12V19.64C241.66 20.76 240.98 21.81 240.08 22.79C239.2 23.77 238.08 24.58 236.72 25.22C235.36 25.84 233.81 26.15 232.07 26.15C229.95 26.15 228.07 25.7 226.43 24.8C224.81 23.88 223.55 22.61 222.65 20.99C221.77 19.35 221.33 17.48 221.33 15.38C221.33 13.3 221.77 11.45 222.65 9.83C223.55 8.19 224.81 6.92 226.43 6.02C228.05 5.1 229.92 4.64 232.04 4.64C234.7 4.64 236.9 5.28 238.64 6.56C240.38 7.84 241.46 9.59 241.88 11.81H235.55Z" fill="#3EFF5A"/>
</svg>
