<svg width="285" height="29" viewBox="0 0 285 29" fill="none" xmlns="http://www.w3.org/2000/svg">
<circle cx="14.5" cy="14.5" r="14.5" fill="#FA3333"/>
<path d="M46.05 4.85C48.27 4.85 50.21 5.3 51.87 6.2C53.55 7.08 54.84 8.32 55.74 9.92C56.64 11.52 57.09 13.35 57.09 15.41C57.09 17.45 56.63 19.27 55.71 20.87C54.81 22.47 53.52 23.73 51.84 24.65C50.18 25.55 48.25 26 46.05 26H37.68V4.85H46.05ZM45.6 20.81C47.32 20.81 48.67 20.34 49.65 19.4C50.63 18.46 51.12 17.13 51.12 15.41C51.12 13.67 50.63 12.33 49.65 11.39C48.67 10.43 47.32 9.95 45.6 9.95H43.56V20.81H45.6ZM65.9205 4.85V26H60.0405V4.85H65.9205ZM77.5491 26.21C75.0891 26.21 73.0691 25.63 71.4891 24.47C69.9091 23.29 69.0591 21.61 68.9391 19.43H75.2091C75.2691 20.17 75.4891 20.71 75.8691 21.05C76.2491 21.39 76.7391 21.56 77.3391 21.56C77.8791 21.56 78.3191 21.43 78.6591 21.17C79.0191 20.89 79.1991 20.51 79.1991 20.03C79.1991 19.41 78.9091 18.93 78.3291 18.59C77.7491 18.25 76.8091 17.87 75.5091 17.45C74.1291 16.99 73.0091 16.55 72.1491 16.13C71.3091 15.69 70.5691 15.06 69.9291 14.24C69.3091 13.4 68.9991 12.31 68.9991 10.97C68.9991 9.61 69.3391 8.45 70.0191 7.49C70.6991 6.51 71.6391 5.77 72.8391 5.27C74.0391 4.77 75.3991 4.52 76.9191 4.52C79.3791 4.52 81.3391 5.1 82.7991 6.26C84.2791 7.4 85.0691 9.01 85.1691 11.09H78.7791C78.7591 10.45 78.5591 9.97 78.1791 9.65C77.8191 9.33 77.3491 9.17 76.7691 9.17C76.3291 9.17 75.9691 9.3 75.6891 9.56C75.4091 9.82 75.2691 10.19 75.2691 10.67C75.2691 11.07 75.4191 11.42 75.7191 11.72C76.0391 12 76.4291 12.25 76.8891 12.47C77.3491 12.67 78.0291 12.93 78.9291 13.25C80.2691 13.71 81.3691 14.17 82.2291 14.63C83.1091 15.07 83.8591 15.7 84.4791 16.52C85.1191 17.32 85.4391 18.34 85.4391 19.58C85.4391 20.84 85.1191 21.97 84.4791 22.97C83.8591 23.97 82.9491 24.76 81.7491 25.34C80.5691 25.92 79.1691 26.21 77.5491 26.21ZM87.7526 15.38C87.7526 13.3 88.1826 11.45 89.0426 9.83C89.9226 8.19 91.1626 6.92 92.7626 6.02C94.3626 5.1 96.2026 4.64 98.2826 4.64C100.923 4.64 103.143 5.35 104.943 6.77C106.743 8.17 107.903 10.08 108.423 12.5H102.093C101.713 11.7 101.183 11.09 100.503 10.67C99.8426 10.25 99.0726 10.04 98.1926 10.04C96.8326 10.04 95.7426 10.53 94.9226 11.51C94.1226 12.47 93.7226 13.76 93.7226 15.38C93.7226 17.02 94.1226 18.33 94.9226 19.31C95.7426 20.27 96.8326 20.75 98.1926 20.75C99.0726 20.75 99.8426 20.54 100.503 20.12C101.183 19.7 101.713 19.09 102.093 18.29H108.423C107.903 20.71 106.743 22.63 104.943 24.05C103.143 25.45 100.923 26.15 98.2826 26.15C96.2026 26.15 94.3626 25.7 92.7626 24.8C91.1626 23.88 89.9226 22.61 89.0426 20.99C88.1826 19.35 87.7526 17.48 87.7526 15.38ZM121.647 26.21C119.667 26.21 117.847 25.75 116.187 24.83C114.527 23.89 113.207 22.6 112.227 20.96C111.267 19.3 110.787 17.43 110.787 15.35C110.787 13.27 111.267 11.41 112.227 9.77C113.207 8.11 114.527 6.82 116.187 5.9C117.847 4.98 119.667 4.52 121.647 4.52C123.647 4.52 125.467 4.98 127.107 5.9C128.767 6.82 130.077 8.11 131.037 9.77C131.997 11.41 132.477 13.27 132.477 15.35C132.477 17.43 131.997 19.3 131.037 20.96C130.077 22.6 128.767 23.89 127.107 24.83C125.447 25.75 123.627 26.21 121.647 26.21ZM121.647 20.75C123.147 20.75 124.327 20.26 125.187 19.28C126.067 18.3 126.507 16.99 126.507 15.35C126.507 13.67 126.067 12.35 125.187 11.39C124.327 10.41 123.147 9.92 121.647 9.92C120.127 9.92 118.937 10.41 118.077 11.39C117.217 12.35 116.787 13.67 116.787 15.35C116.787 17.01 117.217 18.33 118.077 19.31C118.937 20.27 120.127 20.75 121.647 20.75ZM155.01 26H149.13L141.3 14.18V26H135.42V4.85H141.3L149.13 16.82V4.85H155.01V26ZM178.25 26H172.37L164.54 14.18V26H158.66V4.85H164.54L172.37 16.82V4.85H178.25V26ZM187.779 9.56V13.01H194.529V17.48H187.779V21.29H195.429V26H181.899V4.85H195.429V9.56H187.779ZM197.915 15.38C197.915 13.3 198.345 11.45 199.205 9.83C200.085 8.19 201.325 6.92 202.925 6.02C204.525 5.1 206.365 4.64 208.445 4.64C211.085 4.64 213.305 5.35 215.105 6.77C216.905 8.17 218.065 10.08 218.585 12.5H212.255C211.875 11.7 211.345 11.09 210.665 10.67C210.005 10.25 209.235 10.04 208.355 10.04C206.995 10.04 205.905 10.53 205.085 11.51C204.285 12.47 203.885 13.76 203.885 15.38C203.885 17.02 204.285 18.33 205.085 19.31C205.905 20.27 206.995 20.75 208.355 20.75C209.235 20.75 210.005 20.54 210.665 20.12C211.345 19.7 211.875 19.09 212.255 18.29H218.585C218.065 20.71 216.905 22.63 215.105 24.05C213.305 25.45 211.085 26.15 208.445 26.15C206.365 26.15 204.525 25.7 202.925 24.8C201.325 23.88 200.085 22.61 199.205 20.99C198.345 19.35 197.915 17.48 197.915 15.38ZM237.599 4.85V9.53H231.959V26H226.079V9.53H220.499V4.85H237.599ZM245.955 9.56V13.01H252.705V17.48H245.955V21.29H253.605V26H240.075V4.85H253.605V9.56H245.955ZM265.18 4.85C267.4 4.85 269.34 5.3 271 6.2C272.68 7.08 273.97 8.32 274.87 9.92C275.77 11.52 276.22 13.35 276.22 15.41C276.22 17.45 275.76 19.27 274.84 20.87C273.94 22.47 272.65 23.73 270.97 24.65C269.31 25.55 267.38 26 265.18 26H256.81V4.85H265.18ZM264.73 20.81C266.45 20.81 267.8 20.34 268.78 19.4C269.76 18.46 270.25 17.13 270.25 15.41C270.25 13.67 269.76 12.33 268.78 11.39C267.8 10.43 266.45 9.95 264.73 9.95H262.69V20.81H264.73Z" fill="#FA3333"/>
</svg>
