<svg width="259" height="29" viewBox="0 0 259 29" fill="none" xmlns="http://www.w3.org/2000/svg">
<circle cx="14.5" cy="14.5" r="14.5" fill="#FFD023"/>
<path d="M45.66 26.21C43.2 26.21 41.18 25.63 39.6 24.47C38.02 23.29 37.17 21.61 37.05 19.43H43.32C43.38 20.17 43.6 20.71 43.98 21.05C44.36 21.39 44.85 21.56 45.45 21.56C45.99 21.56 46.43 21.43 46.77 21.17C47.13 20.89 47.31 20.51 47.31 20.03C47.31 19.41 47.02 18.93 46.44 18.59C45.86 18.25 44.92 17.87 43.62 17.45C42.24 16.99 41.12 16.55 40.26 16.13C39.42 15.69 38.68 15.06 38.04 14.24C37.42 13.4 37.11 12.31 37.11 10.97C37.11 9.61 37.45 8.45 38.13 7.49C38.81 6.51 39.75 5.77 40.95 5.27C42.15 4.77 43.51 4.52 45.03 4.52C47.49 4.52 49.45 5.1 50.91 6.26C52.39 7.4 53.18 9.01 53.28 11.09H46.89C46.87 10.45 46.67 9.97 46.29 9.65C45.93 9.33 45.46 9.17 44.88 9.17C44.44 9.17 44.08 9.3 43.8 9.56C43.52 9.82 43.38 10.19 43.38 10.67C43.38 11.07 43.53 11.42 43.83 11.72C44.15 12 44.54 12.25 45 12.47C45.46 12.67 46.14 12.93 47.04 13.25C48.38 13.71 49.48 14.17 50.34 14.63C51.22 15.07 51.97 15.7 52.59 16.52C53.23 17.32 53.55 18.34 53.55 19.58C53.55 20.84 53.23 21.97 52.59 22.97C51.97 23.97 51.06 24.76 49.86 25.34C48.68 25.92 47.28 26.21 45.66 26.21ZM72.5135 4.85V9.53H66.8735V26H60.9935V9.53H55.4135V4.85H72.5135ZM85.699 26L81.499 18.2H80.869V26H74.989V4.85H84.259C85.959 4.85 87.399 5.15 88.579 5.75C89.759 6.33 90.649 7.14 91.249 8.18C91.849 9.2 92.149 10.35 92.149 11.63C92.149 13.07 91.749 14.34 90.949 15.44C90.169 16.52 89.019 17.29 87.499 17.75L92.269 26H85.699ZM80.869 14.18H83.779C84.579 14.18 85.179 13.99 85.579 13.61C85.979 13.23 86.179 12.68 86.179 11.96C86.179 11.28 85.969 10.75 85.549 10.37C85.149 9.97 84.559 9.77 83.779 9.77H80.869V14.18ZM101.003 9.56V13.01H107.753V17.48H101.003V21.29H108.653V26H95.123V4.85H108.653V9.56H101.003ZM125.239 22.55H117.739L116.599 26H110.419L118.129 4.85H124.909L132.589 26H126.379L125.239 22.55ZM123.769 18.05L121.489 11.21L119.239 18.05H123.769ZM159.495 4.85V26H153.615V14.33L149.625 26H144.705L140.685 14.24V26H134.805V4.85H141.915L147.225 18.59L152.415 4.85H159.495ZM169.022 4.85V26H163.142V4.85H169.022ZM192.261 26H186.381L178.551 14.18V26H172.671V4.85H178.551L186.381 16.82V4.85H192.261V26ZM209.41 11.81C209.07 11.25 208.6 10.82 208 10.52C207.42 10.22 206.73 10.07 205.93 10.07C204.45 10.07 203.28 10.55 202.42 11.51C201.58 12.47 201.16 13.76 201.16 15.38C201.16 17.2 201.61 18.59 202.51 19.55C203.43 20.49 204.76 20.96 206.5 20.96C208.56 20.96 210.03 20.03 210.91 18.17H205V13.94H215.98V19.64C215.52 20.76 214.84 21.81 213.94 22.79C213.06 23.77 211.94 24.58 210.58 25.22C209.22 25.84 207.67 26.15 205.93 26.15C203.81 26.15 201.93 25.7 200.29 24.8C198.67 23.88 197.41 22.61 196.51 20.99C195.63 19.35 195.19 17.48 195.19 15.38C195.19 13.3 195.63 11.45 196.51 9.83C197.41 8.19 198.67 6.92 200.29 6.02C201.91 5.1 203.78 4.64 205.9 4.64C208.56 4.64 210.76 5.28 212.5 6.56C214.24 7.84 215.32 9.59 215.74 11.81H209.41Z" fill="#FFD023"/>
</svg>
