<svg width="209" height="54" viewBox="0 0 209 54" fill="none" xmlns="http://www.w3.org/2000/svg">
<g filter="url(#filter0_d_54_819)">
<path d="M9.99996 39.4546V6.00001H23.3948C25.856 6.00001 27.9088 6.36483 29.5532 7.09447C31.1976 7.82411 32.4337 8.8369 33.2613 10.1328C34.089 11.4179 34.5028 12.8989 34.5028 14.576C34.5028 15.8828 34.2414 17.0317 33.7187 18.0227C33.196 19.0029 32.4772 19.8087 31.5625 20.4404C30.6586 21.0611 29.624 21.5021 28.4588 21.7635V22.0902C29.7329 22.1447 30.9254 22.504 32.0362 23.1683C33.1579 23.8326 34.0672 24.7637 34.7642 25.9617C35.4611 27.1487 35.8096 28.5644 35.8096 30.2088C35.8096 31.9839 35.3686 33.5684 34.4865 34.9624C33.6152 36.3454 32.3248 37.4399 30.615 38.2458C28.9053 39.0516 26.798 39.4546 24.2933 39.4546H9.99996ZM17.0731 33.6719H22.8394C24.8106 33.6719 26.2481 33.2962 27.1519 32.5448C28.0558 31.7824 28.5078 30.7697 28.5078 29.5064C28.5078 28.5807 28.2845 27.764 27.838 27.0561C27.3915 26.3483 26.7545 25.7929 25.9268 25.3899C25.11 24.987 24.1354 24.7855 23.0028 24.7855H17.0731V33.6719ZM17.0731 19.9993H22.3167C23.2859 19.9993 24.1463 19.8305 24.8977 19.4929C25.66 19.1444 26.259 18.6544 26.6946 18.0227C27.1411 17.3911 27.3643 16.6342 27.3643 15.7521C27.3643 14.5433 26.9341 13.5687 26.0738 12.8281C25.2244 12.0876 24.0156 11.7173 22.4474 11.7173H17.0731V19.9993ZM61.8261 6.00001H68.8993V27.7259C68.8993 30.1653 68.3167 32.2997 67.1514 34.1293C65.9971 35.9588 64.3799 37.3854 62.2999 38.4091C60.2198 39.4219 57.7968 39.9283 55.0307 39.9283C52.2537 39.9283 49.8252 39.4219 47.7452 38.4091C45.6651 37.3854 44.048 35.9588 42.8936 34.1293C41.7392 32.2997 41.1621 30.1653 41.1621 27.7259V6.00001H48.2352V27.1215C48.2352 28.3956 48.5129 29.5282 49.0683 30.5192C49.6346 31.5102 50.4296 32.2888 51.4533 32.8551C52.4769 33.4214 53.6694 33.7046 55.0307 33.7046C56.4028 33.7046 57.5953 33.4214 58.6081 32.8551C59.6318 32.2888 60.4213 31.5102 60.9767 30.5192C61.543 29.5282 61.8261 28.3956 61.8261 27.1215V6.00001ZM75.4687 39.4546V6.00001H97.6193V11.8317H82.5419V19.8033H96.1491V25.635H82.5419V39.4546H75.4687ZM103.127 39.4546V6.00001H125.277V11.8317H110.2V19.8033H123.807V25.635H110.2V39.4546H103.127ZM130.785 39.4546V6.00001H153.328V11.8317H137.858V19.8033H152.168V25.635H137.858V33.6229H153.393V39.4546H130.785ZM159.701 39.4546V6.00001H172.9C175.427 6.00001 177.583 6.45195 179.369 7.35584C181.166 8.24883 182.532 9.51753 183.469 11.1619C184.416 12.7955 184.89 14.7176 184.89 16.9283C184.89 19.1499 184.411 21.0611 183.453 22.6619C182.494 24.2519 181.106 25.4716 179.287 26.321C177.479 27.1705 175.29 27.5952 172.72 27.5952H163.883V21.9105H171.577C172.927 21.9105 174.049 21.7254 174.942 21.3551C175.835 20.9849 176.499 20.4295 176.935 19.6889C177.381 18.9484 177.605 18.0282 177.605 16.9283C177.605 15.8175 177.381 14.8809 176.935 14.1186C176.499 13.3563 175.829 12.7791 174.926 12.3871C174.033 11.9842 172.905 11.7827 171.544 11.7827H166.774V39.4546H159.701ZM177.768 24.2301L186.083 39.4546H178.274L170.139 24.2301H177.768ZM194.575 35.5668C193.497 35.5668 192.572 35.1856 191.798 34.4233C191.036 33.661 190.655 32.7353 190.655 31.6463C190.655 30.5791 191.036 29.6643 191.798 28.902C192.572 28.1397 193.497 27.7585 194.575 27.7585C195.621 27.7585 196.536 28.1397 197.32 28.902C198.104 29.6643 198.496 30.5791 198.496 31.6463C198.496 32.3651 198.311 33.0239 197.94 33.6229C197.581 34.211 197.107 34.6847 196.519 35.044C195.931 35.3925 195.283 35.5668 194.575 35.5668ZM194.575 19.1499C193.497 19.1499 192.572 18.7687 191.798 18.0064C191.036 17.2441 190.655 16.3184 190.655 15.2294C190.655 14.1622 191.036 13.2529 191.798 12.5014C192.572 11.7391 193.497 11.358 194.575 11.358C195.621 11.358 196.536 11.7391 197.32 12.5014C198.104 13.2529 198.496 14.1622 198.496 15.2294C198.496 15.9591 198.311 16.6234 197.94 17.2223C197.581 17.8104 197.107 18.2787 196.519 18.6271C195.931 18.9756 195.283 19.1499 194.575 19.1499Z" fill="#3EFF5A"/>
</g>
<defs>
<filter id="filter0_d_54_819" x="0" y="0" width="208.496" height="53.9283" filterUnits="userSpaceOnUse" color-interpolation-filters="sRGB">
<feFlood flood-opacity="0" result="BackgroundImageFix"/>
<feColorMatrix in="SourceAlpha" type="matrix" values="0 0 0 0 0 0 0 0 0 0 0 0 0 0 0 0 0 0 127 0" result="hardAlpha"/>
<feOffset dy="4"/>
<feGaussianBlur stdDeviation="5"/>
<feColorMatrix type="matrix" values="0 0 0 0 0.243137 0 0 0 0 1 0 0 0 0 0.352941 0 0 0 0.38 0"/>
<feBlend mode="normal" in2="BackgroundImageFix" result="effect1_dropShadow_54_819"/>
<feBlend mode="normal" in="SourceGraphic" in2="effect1_dropShadow_54_819" result="shape"/>
</filter>
</defs>
</svg>
