<svg width="86" height="22" viewBox="0 0 86 22" fill="none" xmlns="http://www.w3.org/2000/svg">
<path d="M0.000233658 10.74C0.000233658 8.65998 0.430234 6.80998 1.29023 5.18998C2.17023 3.54998 3.41023 2.27998 5.01023 1.37999C6.61023 0.459985 8.45023 -1.50204e-05 10.5302 -1.50204e-05C13.1702 -1.50204e-05 15.3902 0.709985 17.1902 2.12998C18.9902 3.52998 20.1502 5.43998 20.6702 7.85998H14.3402C13.9602 7.05998 13.4302 6.44998 12.7502 6.02998C12.0902 5.60998 11.3202 5.39999 10.4402 5.39999C9.08023 5.39999 7.99023 5.88999 7.17023 6.86999C6.37023 7.82998 5.97023 9.11998 5.97023 10.74C5.97023 12.38 6.37023 13.69 7.17023 14.67C7.99023 15.63 9.08023 16.11 10.4402 16.11C11.3202 16.11 12.0902 15.9 12.7502 15.48C13.4302 15.06 13.9602 14.45 14.3402 13.65H20.6702C20.1502 16.07 18.9902 17.99 17.1902 19.41C15.3902 20.81 13.1702 21.51 10.5302 21.51C8.45023 21.51 6.61023 21.06 5.01023 20.16C3.41023 19.24 2.17023 17.97 1.29023 16.35C0.430234 14.71 0.000233658 12.84 0.000233658 10.74ZM42.6846 0.209984V21.36H36.8046V12.87H29.6346V21.36H23.7546V0.209984H29.6346V8.15998H36.8046V0.209984H42.6846ZM59.7295 17.91H52.2295L51.0895 21.36H44.9095L52.6195 0.209984H59.3995L67.0795 21.36H60.8695L59.7295 17.91ZM58.2595 13.41L55.9795 6.56998L53.7295 13.41H58.2595ZM85.226 0.209984V4.88998H79.586V21.36H73.706V4.88998H68.126V0.209984H85.226Z" fill="#49FF3E"/>
</svg>
