<svg width="96" height="72" viewBox="0 0 96 72" fill="none" xmlns="http://www.w3.org/2000/svg">
<g filter="url(#filter0_d_6_1396)">
<path d="M22.906 6.297V10.509H15.292V13.857H20.908V17.88H15.292V25.332H10V6.297H22.906ZM40.6738 12.642C40.6738 13.794 40.4038 14.847 39.8638 15.801C39.3418 16.737 38.5408 17.493 37.4608 18.069C36.3988 18.627 35.0938 18.906 33.5458 18.906H30.9268V25.332H25.6348V6.297H33.5458C35.0758 6.297 36.3718 6.567 37.4338 7.107C38.5138 7.647 39.3238 8.394 39.8638 9.348C40.4038 10.302 40.6738 11.4 40.6738 12.642ZM33.0328 14.694C34.5268 14.694 35.2738 14.01 35.2738 12.642C35.2738 11.256 34.5268 10.563 33.0328 10.563H30.9268V14.694H33.0328ZM50.4818 25.521C48.2678 25.521 46.4498 24.999 45.0278 23.955C43.6058 22.893 42.8408 21.381 42.7328 19.419H48.3758C48.4298 20.085 48.6278 20.571 48.9698 20.877C49.3118 21.183 49.7528 21.336 50.2928 21.336C50.7788 21.336 51.1748 21.219 51.4808 20.985C51.8048 20.733 51.9668 20.391 51.9668 19.959C51.9668 19.401 51.7058 18.969 51.1838 18.663C50.6618 18.357 49.8158 18.015 48.6458 17.637C47.4038 17.223 46.3958 16.827 45.6218 16.449C44.8658 16.053 44.1998 15.486 43.6238 14.748C43.0658 13.992 42.7868 13.011 42.7868 11.805C42.7868 10.581 43.0928 9.537 43.7048 8.673C44.3168 7.791 45.1628 7.125 46.2428 6.675C47.3228 6.225 48.5468 6 49.9148 6C52.1288 6 53.8928 6.522 55.2068 7.566C56.5388 8.592 57.2498 10.041 57.3398 11.913H51.5888C51.5708 11.337 51.3908 10.905 51.0488 10.617C50.7248 10.329 50.3018 10.185 49.7798 10.185C49.3838 10.185 49.0598 10.302 48.8078 10.536C48.5558 10.77 48.4298 11.103 48.4298 11.535C48.4298 11.895 48.5648 12.21 48.8348 12.48C49.1228 12.732 49.4738 12.957 49.8878 13.155C50.3018 13.335 50.9138 13.569 51.7238 13.857C52.9298 14.271 53.9198 14.685 54.6938 15.099C55.4858 15.495 56.1608 16.062 56.7188 16.8C57.2948 17.52 57.5828 18.438 57.5828 19.554C57.5828 20.688 57.2948 21.705 56.7188 22.605C56.1608 23.505 55.3418 24.216 54.2618 24.738C53.1998 25.26 51.9398 25.521 50.4818 25.521ZM63.108 25.548C62.172 25.548 61.416 25.296 60.84 24.792C60.282 24.27 60.003 23.613 60.003 22.821C60.003 22.029 60.282 21.372 60.84 20.85C61.416 20.328 62.172 20.067 63.108 20.067C64.026 20.067 64.764 20.328 65.322 20.85C65.898 21.372 66.186 22.029 66.186 22.821C66.186 23.595 65.898 24.243 65.322 24.765C64.764 25.287 64.026 25.548 63.108 25.548ZM63.108 14.694C62.172 14.694 61.416 14.442 60.84 13.938C60.282 13.416 60.003 12.759 60.003 11.967C60.003 11.175 60.282 10.518 60.84 9.996C61.416 9.474 62.172 9.213 63.108 9.213C64.026 9.213 64.764 9.474 65.322 9.996C65.898 10.518 66.186 11.175 66.186 11.967C66.186 12.741 65.898 13.389 65.322 13.911C64.764 14.433 64.026 14.694 63.108 14.694ZM15.292 53.282H21.205V57.332H10V38.297H15.292V53.282ZM32.8887 57.521C31.1067 57.521 29.4687 57.107 27.9747 56.279C26.4807 55.433 25.2927 54.272 24.4107 52.796C23.5467 51.302 23.1147 49.619 23.1147 47.747C23.1147 45.875 23.5467 44.201 24.4107 42.725C25.2927 41.231 26.4807 40.07 27.9747 39.242C29.4687 38.414 31.1067 38 32.8887 38C34.6887 38 36.3267 38.414 37.8027 39.242C39.2967 40.07 40.4757 41.231 41.3397 42.725C42.2037 44.201 42.6357 45.875 42.6357 47.747C42.6357 49.619 42.2037 51.302 41.3397 52.796C40.4757 54.272 39.2967 55.433 37.8027 56.279C36.3087 57.107 34.6707 57.521 32.8887 57.521ZM32.8887 52.607C34.2387 52.607 35.3007 52.166 36.0747 51.284C36.8667 50.402 37.2627 49.223 37.2627 47.747C37.2627 46.235 36.8667 45.047 36.0747 44.183C35.3007 43.301 34.2387 42.86 32.8887 42.86C31.5207 42.86 30.4497 43.301 29.6757 44.183C28.9017 45.047 28.5147 46.235 28.5147 47.747C28.5147 49.241 28.9017 50.429 29.6757 51.311C30.4497 52.175 31.5207 52.607 32.8887 52.607ZM52.6967 57.521C50.4827 57.521 48.6647 56.999 47.2427 55.955C45.8207 54.893 45.0557 53.381 44.9477 51.419H50.5907C50.6447 52.085 50.8427 52.571 51.1847 52.877C51.5267 53.183 51.9677 53.336 52.5077 53.336C52.9937 53.336 53.3897 53.219 53.6957 52.985C54.0197 52.733 54.1817 52.391 54.1817 51.959C54.1817 51.401 53.9207 50.969 53.3987 50.663C52.8767 50.357 52.0307 50.015 50.8607 49.637C49.6187 49.223 48.6107 48.827 47.8367 48.449C47.0807 48.053 46.4147 47.486 45.8387 46.748C45.2807 45.992 45.0017 45.011 45.0017 43.805C45.0017 42.581 45.3077 41.537 45.9197 40.673C46.5317 39.791 47.3777 39.125 48.4577 38.675C49.5377 38.225 50.7617 38 52.1297 38C54.3437 38 56.1077 38.522 57.4217 39.566C58.7537 40.592 59.4647 42.041 59.5547 43.913H53.8037C53.7857 43.337 53.6057 42.905 53.2637 42.617C52.9397 42.329 52.5167 42.185 51.9947 42.185C51.5987 42.185 51.2747 42.302 51.0227 42.536C50.7707 42.77 50.6447 43.103 50.6447 43.535C50.6447 43.895 50.7797 44.21 51.0497 44.48C51.3377 44.732 51.6887 44.957 52.1027 45.155C52.5167 45.335 53.1287 45.569 53.9387 45.857C55.1447 46.271 56.1347 46.685 56.9087 47.099C57.7007 47.495 58.3757 48.062 58.9337 48.8C59.5097 49.52 59.7977 50.438 59.7977 51.554C59.7977 52.688 59.5097 53.705 58.9337 54.605C58.3757 55.505 57.5567 56.216 56.4767 56.738C55.4147 57.26 54.1547 57.521 52.6967 57.521ZM69.9399 57.521C67.7259 57.521 65.9078 56.999 64.4858 55.955C63.0638 54.893 62.2988 53.381 62.1908 51.419H67.8339C67.8878 52.085 68.0858 52.571 68.4278 52.877C68.7699 53.183 69.2109 53.336 69.7509 53.336C70.2368 53.336 70.6328 53.219 70.9389 52.985C71.2628 52.733 71.4248 52.391 71.4248 51.959C71.4248 51.401 71.1638 50.969 70.6419 50.663C70.1198 50.357 69.2738 50.015 68.1038 49.637C66.8618 49.223 65.8538 48.827 65.0798 48.449C64.3238 48.053 63.6578 47.486 63.0818 46.748C62.5238 45.992 62.2448 45.011 62.2448 43.805C62.2448 42.581 62.5508 41.537 63.1628 40.673C63.7748 39.791 64.6208 39.125 65.7008 38.675C66.7808 38.225 68.0049 38 69.3729 38C71.5869 38 73.3509 38.522 74.6648 39.566C75.9969 40.592 76.7079 42.041 76.7979 43.913H71.0468C71.0288 43.337 70.8489 42.905 70.5069 42.617C70.1829 42.329 69.7598 42.185 69.2378 42.185C68.8418 42.185 68.5179 42.302 68.2659 42.536C68.0138 42.77 67.8878 43.103 67.8878 43.535C67.8878 43.895 68.0228 44.21 68.2928 44.48C68.5808 44.732 68.9318 44.957 69.3458 45.155C69.7598 45.335 70.3719 45.569 71.1819 45.857C72.3879 46.271 73.3779 46.685 74.1519 47.099C74.9439 47.495 75.6189 48.062 76.1769 48.8C76.7529 49.52 77.0409 50.438 77.0409 51.554C77.0409 52.688 76.7529 53.705 76.1769 54.605C75.6189 55.505 74.7998 56.216 73.7198 56.738C72.6579 57.26 71.3979 57.521 69.9399 57.521ZM82.566 57.548C81.63 57.548 80.874 57.296 80.298 56.792C79.74 56.27 79.461 55.613 79.461 54.821C79.461 54.029 79.74 53.372 80.298 52.85C80.874 52.328 81.63 52.067 82.566 52.067C83.484 52.067 84.222 52.328 84.78 52.85C85.356 53.372 85.644 54.029 85.644 54.821C85.644 55.595 85.356 56.243 84.78 56.765C84.222 57.287 83.484 57.548 82.566 57.548ZM82.566 46.694C81.63 46.694 80.874 46.442 80.298 45.938C79.74 45.416 79.461 44.759 79.461 43.967C79.461 43.175 79.74 42.518 80.298 41.996C80.874 41.474 81.63 41.213 82.566 41.213C83.484 41.213 84.222 41.474 84.78 41.996C85.356 42.518 85.644 43.175 85.644 43.967C85.644 44.741 85.356 45.389 84.78 45.911C84.222 46.433 83.484 46.694 82.566 46.694Z" fill="#3EFF5A"/>
</g>
<defs>
<filter id="filter0_d_6_1396" x="0" y="0" width="95.644" height="71.548" filterUnits="userSpaceOnUse" color-interpolation-filters="sRGB">
<feFlood flood-opacity="0" result="BackgroundImageFix"/>
<feColorMatrix in="SourceAlpha" type="matrix" values="0 0 0 0 0 0 0 0 0 0 0 0 0 0 0 0 0 0 127 0" result="hardAlpha"/>
<feOffset dy="4"/>
<feGaussianBlur stdDeviation="5"/>
<feComposite in2="hardAlpha" operator="out"/>
<feColorMatrix type="matrix" values="0 0 0 0 0.243137 0 0 0 0 1 0 0 0 0 0.352941 0 0 0 0.38 0"/>
<feBlend mode="normal" in2="BackgroundImageFix" result="effect1_dropShadow_6_1396"/>
<feBlend mode="normal" in="SourceGraphic" in2="effect1_dropShadow_6_1396" result="shape"/>
</filter>
</defs>
</svg>
