<svg width="45" height="30" viewBox="0 0 45 30" fill="none" xmlns="http://www.w3.org/2000/svg">
<path d="M3.19216 -1.90735e-06V11.28H0.0561563V-1.90735e-06H3.19216ZM14.19 3.76C14.19 4.44267 14.03 5.06667 13.71 5.632C13.4007 6.18667 12.926 6.63467 12.286 6.976C11.6567 7.30667 10.8834 7.472 9.96603 7.472H8.41403V11.28H5.27803V-1.90735e-06H9.96603C10.8727 -1.90735e-06 11.6407 0.159998 12.27 0.479999C12.91 0.799998 13.39 1.24266 13.71 1.808C14.03 2.37333 14.19 3.024 14.19 3.76ZM9.66203 4.976C10.5474 4.976 10.99 4.57067 10.99 3.76C10.99 2.93866 10.5474 2.528 9.66203 2.528H8.41403V4.976H9.66203ZM17.2699 11.408C16.7152 11.408 16.2672 11.2587 15.9259 10.96C15.5952 10.6507 15.4299 10.2613 15.4299 9.792C15.4299 9.32267 15.5952 8.93333 15.9259 8.624C16.2672 8.31467 16.7152 8.16 17.2699 8.16C17.8139 8.16 18.2512 8.31467 18.5819 8.624C18.9232 8.93333 19.0939 9.32267 19.0939 9.792C19.0939 10.2507 18.9232 10.6347 18.5819 10.944C18.2512 11.2533 17.8139 11.408 17.2699 11.408ZM17.2699 4.976C16.7152 4.976 16.2672 4.82667 15.9259 4.528C15.5952 4.21866 15.4299 3.82933 15.4299 3.36C15.4299 2.89066 15.5952 2.50133 15.9259 2.192C16.2672 1.88267 16.7152 1.728 17.2699 1.728C17.8139 1.728 18.2512 1.88267 18.5819 2.192C18.9232 2.50133 19.0939 2.89066 19.0939 3.36C19.0939 3.81867 18.9232 4.20267 18.5819 4.512C18.2512 4.82133 17.8139 4.976 17.2699 4.976ZM8.35516 22.23C8.35516 22.87 8.20516 23.455 7.90516 23.985C7.61516 24.505 7.17016 24.925 6.57016 25.245C5.98016 25.555 5.25516 25.71 4.39516 25.71H2.94016V29.28H0.000156276V18.705H4.39516C5.24516 18.705 5.96516 18.855 6.55516 19.155C7.15516 19.455 7.60516 19.87 7.90516 20.4C8.20516 20.93 8.35516 21.54 8.35516 22.23ZM4.11016 23.37C4.94016 23.37 5.35516 22.99 5.35516 22.23C5.35516 21.46 4.94016 21.075 4.11016 21.075H2.94016V23.37H4.11016ZM14.9063 29.385C13.9163 29.385 13.0063 29.155 12.1763 28.695C11.3463 28.225 10.6863 27.58 10.1963 26.76C9.71629 25.93 9.47629 24.995 9.47629 23.955C9.47629 22.915 9.71629 21.985 10.1963 21.165C10.6863 20.335 11.3463 19.69 12.1763 19.23C13.0063 18.77 13.9163 18.54 14.9063 18.54C15.9063 18.54 16.8163 18.77 17.6363 19.23C18.4663 19.69 19.1213 20.335 19.6013 21.165C20.0813 21.985 20.3213 22.915 20.3213 23.955C20.3213 24.995 20.0813 25.93 19.6013 26.76C19.1213 27.58 18.4663 28.225 17.6363 28.695C16.8063 29.155 15.8963 29.385 14.9063 29.385ZM14.9063 26.655C15.6563 26.655 16.2463 26.41 16.6763 25.92C17.1163 25.43 17.3363 24.775 17.3363 23.955C17.3363 23.115 17.1163 22.455 16.6763 21.975C16.2463 21.485 15.6563 21.24 14.9063 21.24C14.1463 21.24 13.5513 21.485 13.1213 21.975C12.6913 22.455 12.4763 23.115 12.4763 23.955C12.4763 24.785 12.6913 25.445 13.1213 25.935C13.5513 26.415 14.1463 26.655 14.9063 26.655ZM27.2979 29.28L25.1979 25.38H24.8829V29.28H21.9429V18.705H26.5779C27.4279 18.705 28.1479 18.855 28.7379 19.155C29.3279 19.445 29.7729 19.85 30.0729 20.37C30.3729 20.88 30.5229 21.455 30.5229 22.095C30.5229 22.815 30.3229 23.45 29.9229 24C29.5329 24.54 28.9579 24.925 28.1979 25.155L30.5829 29.28H27.2979ZM24.8829 23.37H26.3379C26.7379 23.37 27.0379 23.275 27.2379 23.085C27.4379 22.895 27.5379 22.62 27.5379 22.26C27.5379 21.92 27.4329 21.655 27.2229 21.465C27.0229 21.265 26.7279 21.165 26.3379 21.165H24.8829V23.37ZM40.1249 18.705V21.045H37.3049V29.28H34.3649V21.045H31.5749V18.705H40.1249ZM43.0887 29.408C42.534 29.408 42.086 29.2587 41.7447 28.96C41.414 28.6507 41.2487 28.2613 41.2487 27.792C41.2487 27.3227 41.414 26.9333 41.7447 26.624C42.086 26.3147 42.534 26.16 43.0887 26.16C43.6327 26.16 44.07 26.3147 44.4007 26.624C44.742 26.9333 44.9127 27.3227 44.9127 27.792C44.9127 28.2507 44.742 28.6347 44.4007 28.944C44.07 29.2533 43.6327 29.408 43.0887 29.408ZM43.0887 22.976C42.534 22.976 42.086 22.8267 41.7447 22.528C41.414 22.2187 41.2487 21.8293 41.2487 21.36C41.2487 20.8907 41.414 20.5013 41.7447 20.192C42.086 19.8827 42.534 19.728 43.0887 19.728C43.6327 19.728 44.07 19.8827 44.4007 20.192C44.742 20.5013 44.9127 20.8907 44.9127 21.36C44.9127 21.8187 44.742 22.2027 44.4007 22.512C44.07 22.8213 43.6327 22.976 43.0887 22.976Z" fill="white"/>
</svg>
